PathFileType	4	(X/Y/Z)	D:\TRACE\spotREDO_2-26-24\spot_justArm_Motion_1_2-platform.trc
DataRate	CameraRate	NumFrames	NumMarkers	Units	OrigDataRate	OrigDataStartFrame	OrigNumFrames
100.00	100.00	      42	5	mm	100.00	876	      7000
Frame#	Time	Left_Front			Right_Front			Left_Aft			Right_Aft			Post			
		X1	Y1	Z1	X2	Y2	Z2	X3	Y3	Z3	X4	Y4	Z4	X5	Y5	Z5	

876	8.750	-708.12677	-24.00048	-580.42957	706.65094	-12.55624	-496.12250	-779.53845	25.40945	637.70526	790.12341	31.57146	642.01605	1.34880	589.13690	-1008.10834	
877	8.760	-707.21399	-24.11181	-580.48206	707.59320	-12.81395	-496.20056	-778.43616	25.61969	637.58154	790.66833	31.73175	641.78204	2.32488	588.68396	-1008.46112	
878	8.770	-706.21228	-24.41528	-580.58990	708.66113	-13.00987	-496.10019	-777.38275	25.79337	637.55231	791.79510	32.23019	641.60950	3.46878	588.12726	-1008.85480	
879	8.780	-705.05402	-24.95934	-580.66479	709.48828	-13.27233	-496.21417	-776.56152	26.18609	637.56512	792.83966	32.86631	641.74884	4.17578	587.69238	-1009.06226	
880	8.790	-704.11383	-25.18061	-580.73456	710.36609	-13.58709	-496.27570	-775.64819	26.48118	637.47675	793.84290	32.97586	641.68970	5.08529	587.23834	-1009.55835	
881	8.800	-703.52942	-25.36774	-580.70441	711.40601	-13.82437	-496.32928	-774.61444	26.57039	637.33136	794.39526	33.00639	641.68237	5.84949	586.93231	-1009.84161	
882	8.810	-702.57611	-25.45529	-580.72504	712.27246	-13.84173	-496.25208	-773.86505	27.35847	637.32483	795.47351	33.43118	641.58588	6.73736	586.62939	-1009.94647	
883	8.820	-701.42188	-25.65378	-580.86749	713.20093	-13.94374	-496.53784	-773.01984	27.42302	637.19556	796.64587	33.88963	641.57861	8.03438	586.06274	-1010.41229	
884	8.830	-700.52734	-26.02511	-580.90417	714.43317	-14.04757	-496.51605	-772.00275	27.64102	637.09430	797.25146	34.02264	641.39642	9.00602	585.71362	-1010.65289	
885	8.840	-699.48853	-26.32995	-580.78937	715.15936	-14.38373	-496.45987	-771.06427	27.76772	637.09485	798.18225	34.09200	641.38330	9.97594	585.41919	-1010.92505	
886	8.850	-698.53882	-26.63210	-580.92181	716.09918	-14.34543	-496.67447	-769.97369	27.92959	637.10413	799.44568	33.77045	641.20050	10.80628	585.22528	-1011.27649	
887	8.860	-697.63153	-26.57844	-580.81445	717.21246	-14.68168	-496.63724	-768.95935	28.12108	636.96075	800.51483	34.34699	641.20612	11.79193	584.77789	-1011.61365	
888	8.870	-696.74219	-26.77206	-581.00238	718.11694	-14.97599	-496.53943	-768.04395	28.35357	636.81342	801.24420	34.78928	641.10693	12.69520	584.50671	-1011.44482	
889	8.880	-695.65088	-26.96145	-581.00549	718.88806	-14.97836	-496.81485	-767.00800	28.36019	636.89063	802.20074	35.03280	641.09314	13.86669	584.06708	-1011.67322	
890	8.890	-694.63641	-27.12532	-581.11206	719.97736	-15.12742	-496.76123	-765.87622	28.56288	636.96930	802.97583	35.18097	641.11444	14.92675	583.76306	-1011.78442	
891	8.900	-693.55951	-27.50071	-581.20441	721.30322	-15.36154	-496.47345	-764.92352	28.75262	636.77747	804.11847	35.44788	641.01929	16.10548	583.58331	-1011.70483	
892	8.910	-692.89124	-27.58987	-581.12158	721.94971	-15.44271	-496.61426	-764.24341	28.76167	636.75116	805.17035	35.24003	640.94653	17.02483	583.36255	-1011.98926	
893	8.920	-691.82867	-27.67674	-581.17657	722.91815	-15.39692	-496.89819	-763.05054	29.06924	636.66266	806.32947	35.55463	640.84192	17.80518	582.97882	-1012.65472	
894	8.930	-690.78247	-27.84666	-581.16669	724.11865	-15.55686	-496.84174	-762.25116	29.28768	636.58203	806.83710	35.81697	640.86560	18.52687	582.68359	-1012.65320	
895	8.940	-689.81842	-27.78428	-581.29846	724.77551	-15.71463	-497.02029	-761.43829	29.20179	636.42920	807.99377	35.94072	640.92841	19.52268	582.29633	-1012.89111	
896	8.950	-688.85199	-28.14579	-581.56903	725.91931	-15.96467	-496.88080	-760.13190	29.50572	636.51794	808.95514	36.14515	640.85840	20.69632	582.12634	-1013.03760	
897	8.960	-687.63531	-28.34340	-581.11432	726.75061	-15.89333	-497.04584	-759.28625	29.68556	636.52893	809.86725	36.30633	640.84436	21.81313	581.91016	-1012.98004	
898	8.970	-686.76044	-28.45394	-581.22375	727.73376	-16.15353	-496.83490	-758.44696	29.90183	636.61499	811.04126	36.34099	640.70966	22.63407	581.80609	-1013.10999	
899	8.980	-685.89270	-28.50031	-581.31787	728.75916	-16.23582	-497.01520	-757.27319	29.68036	636.47205	811.73663	36.51610	640.70404	23.42672	581.76324	-1013.53638	
900	8.990	-684.77136	-28.58353	-581.15906	729.79822	-16.23153	-496.88528	-756.44550	29.90273	636.37860	813.07983	36.43270	640.59290	24.59133	581.61047	-1013.76654	
901	9.000	-683.99713	-28.68812	-581.33673	730.67841	-16.21527	-497.18378	-755.47620	30.07973	636.43768	814.05591	36.81612	640.72125	25.56251	581.46576	-1013.69080	
902	9.010	-683.16064	-28.66362	-581.28888	731.64996	-16.38020	-497.06815	-754.45966	30.08500	636.37677	814.87762	36.81830	640.69873	26.25771	581.33209	-1013.74982	
903	9.020	-682.08069	-28.72932	-581.35101	732.59924	-16.54599	-496.92776	-753.51398	30.16343	636.33832	816.03040	37.00582	640.72211	27.06798	581.01141	-1014.05725	
904	9.030	-680.93811	-28.95090	-581.52106	733.68854	-16.62948	-497.03381	-752.67303	30.38443	636.37665	816.73950	36.94811	640.71002	28.17742	580.85858	-1014.06677	
905	9.040	-680.33679	-28.90932	-581.36530	734.48840	-16.56491	-497.10394	-751.74152	30.43567	636.32635	817.55811	36.98708	640.68622	29.08803	580.79871	-1014.03308	
906	9.050	-679.26093	-29.00216	-581.47241	735.57581	-16.58832	-497.13629	-750.78815	30.53327	636.29803	818.83325	37.33514	640.60449	30.28062	580.71997	-1013.87799	
907	9.060	-678.08698	-29.00536	-581.55884	736.55255	-16.58784	-497.02734	-749.77893	30.43355	636.40851	819.76587	37.43555	640.55646	31.70465	580.81696	-1013.62598	
908	9.070	-677.30566	-28.93140	-581.35138	737.23822	-16.71954	-496.91690	-748.78351	30.36254	636.24799	820.55005	37.33262	640.63373	32.53904	580.71356	-1013.90948	
909	9.080	-676.62854	-29.14393	-581.43170	738.36334	-16.61890	-497.02109	-747.73505	30.60686	636.18512	821.50330	37.35919	640.47632	32.82325	580.70581	-1014.17297	
910	9.090	-675.43353	-29.01483	-581.39771	739.27356	-16.79952	-497.10278	-746.97308	30.48901	636.32196	822.57733	37.49604	640.48114	33.89321	580.64825	-1014.21973	
911	9.100	-674.37012	-28.89926	-581.28485	739.95337	-16.79612	-497.10904	-746.11005	30.43194	636.17865	823.09113	37.35271	640.51685	34.78057	580.67419	-1014.18176	
912	9.110	-673.63660	-28.97741	-581.51886	741.00397	-16.39862	-497.21259	-744.97058	30.61757	636.24329	824.26697	37.29050	640.60364	35.65871	580.53143	-1014.51929	
913	9.120	-672.96179	-28.89491	-581.49323	742.05206	-16.57158	-496.96631	-744.26117	30.53995	636.30695	825.27704	37.43975	640.52979	36.70166	580.72058	-1014.38428	
914	9.130	-671.90485	-28.98063	-581.47278	742.92395	-16.61156	-497.02451	-743.32111	30.42703	636.35486	825.93445	37.40656	640.56061	37.28976	580.66663	-1014.31384	
915	9.140	-671.06580	-28.98982	-581.43890	743.72992	-16.58554	-497.09451	-742.20508	30.38569	636.35291	826.86121	37.43903	640.47424	38.36850	580.66467	-1014.25482	
916	9.150	-670.01178	-29.15367	-581.52771	744.49060	-16.59453	-497.12564	-741.61658	30.47151	636.26868	827.93066	37.27151	640.47675	39.36552	580.63135	-1014.18402	
917	9.160	-669.19086	-29.07177	-581.37634	745.54486	-16.64606	-497.20676	-740.76245	30.63223	636.16620	828.74866	37.46265	640.48950	40.28840	580.74597	-1014.37488	
